# xmcd CD database file
# Copyright (C) 1996 Ti Kan
#
# Track frame offsets:
#  150
#  14765
#  33550
#  49415
#  63127
#  81735
#  98510
#  119165
#  136937
#  153792
#  174552
#
# Disc length: 2555 seconds
#
# Revision: 1
# Processed by: cddbd v1.4b41PL1 Copyright (c) Steve Scherf et al.
# Submitted via: CDWizzard Release:4.14
#
DISCID=9609f90b
DTITLE=Chet Atkins - Read My Licks
DYEAR=1900
DGENRE=
TTITLE0=Young Thing
TTITLE1=Mountains of Illinois
TTITLE2=After You've Gone
TTITLE3=Every Now and Then
TTITLE4=Somebody Loves Me Now
TTITLE5=Norway
TTITLE6=Read My Licks
TTITLE7=Take a Look at Her Now
TTITLE8=Around the Bend
TTITLE9=Dream
TTITLE10=Vincent
EXTD=
EXTT0=
EXTT1=
EXTT2=
EXTT3=
EXTT4=
EXTT5=
EXTT6=
EXTT7=
EXTT8=
EXTT9=
EXTT10=
PLAYORDER=
